<svg xmlns="http://www.w3.org/2000/svg" xml:space="preserve" style="enable-background:new 0 0 388.8 388.8" viewBox="0 0 388.8 388.8" fill='#FFF' >
  <path d="M382 173.6c0-.8-1.6-1.6-4-1.6C370.8 76 291.6 0 194.8 0S18.8 76 11.6 172c-1.6 0-3.2.8-4.8 1.6-2.4 2.4-3.2 5.6-2.4 8.8L74 383.2c.8 3.2 4 5.6 7.2 5.6h226.4c3.2 0 6.4-2.4 7.2-5.6l69.6-200.8c.8-3.2 0-6.4-2.4-8.8zm-80 199.2H87.6l-7.2-20h228.8l-7.2 20zm12.8-36h-240L43.6 248h301.6l-30.4 88.8zM351.6 232H38l-12-35.2L46.8 208c14.4 7.2 32 6.4 45.6-2.4l22.4-15.2c9.6-6.4 22.4-6.4 32-.8l23.2 15.2c14.4 9.6 33.6 9.6 48.8 0l23.2-15.2c9.6-6.4 22.4-6.4 32 .8l22.4 15.2c13.6 9.6 31.2 10.4 45.6 2.4l20.8-11.2-11.2 35.2zm-16-39.2c-9.6 4.8-20.8 4-29.6-1.6L283.6 176c-15.2-10.4-34.4-10.4-49.6-.8l-23.2 15.2c-9.6 6.4-21.6 6.4-31.2 0l-23.2-15.2c-15.2-9.6-34.4-9.6-49.6.8l-22.4 15.2c-8.8 5.6-20 6.4-29.6 1.6l-28-13.6C31.6 88 104.4 16 194.8 16s163.2 72.8 168 163.2l-27.2 13.6z"/>
  <circle cx="104.4" cy="97.6" r="11.2"/>
  <circle cx="66" cy="153.6" r="11.2"/>
  <circle cx="166.8" cy="58.4" r="11.2"/>
  <circle cx="226.8" cy="124" r="11.2"/>
  <circle cx="151.6" cy="131.2" r="11.2"/>
  <circle cx="302" cy="116.8" r="11.2"/>
  <circle cx="251.6" cy="64" r="11.2"/>
</svg>