<svg xmlns="http://www.w3.org/2000/svg" xml:space="preserve" style="enable-background:new 0 0 345.702 345.702" viewBox="0 0 345.702 345.702" fill='#FFF' >
  <path d="m336.051 289.702-40-40 6.4-6.4c3.2-3.2 4.8-7.2 4.8-12 0-4-1.6-8.8-4.8-12l-15.2-15.2 30.4-30.4c26.4-26.4 14.4-79.2-26.4-120s-93.6-52.8-120-26.4l-30.4 30.4-15.2-15.2c-6.4-6.4-16.8-6.4-23.2 0l-6.4 6.4-40-40c-12.8-12-33.6-12-46.4.8-6.4 6.4-9.6 14.4-9.6 23.2s3.2 16.8 9.6 23.2l40 40-8.8 8.8c-4 4-5.6 8-5.6 12s1.6 8.8 4.8 12l15.2 15.2-30.4 30.4c-26.4 26.4-14.4 79.2 26.4 120 26.4 26.4 56.8 40 83.2 40 14.4 0 28-4.8 36.8-14.4l30.4-30.4 15.2 15.2c3.2 3.2 7.2 4.8 12 4.8 4 0 8.8-1.6 12-4.8l8.8-8.8 40 40c6.4 6.4 15.2 9.6 23.2 9.6 8.8 0 16.8-3.2 23.2-9.6 6.4-6.4 9.6-14.4 9.6-23.2 0-8.8-3.2-16.8-9.6-23.2zm-152.8-251.2c19.2-19.2 64-7.2 97.6 26.4 33.6 33.6 45.6 78.4 26.4 97.6l-30.4 30.4-124-124 30.4-30.4zm-162.4 6.4c-3.2-3.2-4.8-7.2-4.8-12s1.6-8.8 4.8-12 8-4.8 12-4.8 8.8 1.6 12 4.8l40 40-24 24-40-40zm139.2 264.8c-19.2 19.2-64 7.2-97.6-26.4-33.6-33.6-45.6-78.4-26.4-97.6l30.4-30.4 124 124-30.4 30.4zm78.4-24.8-9.6 8.8 5.6 5.6-6.4-5.6-176-176.8 63.2-62.4 176.8 177.6-7.2 6.4-46.4 46.4zm86.4 40c-6.4 6.4-17.6 6.4-24 0l-40-40 24-24 40 40c3.2 3.2 4.8 7.2 4.8 12s-1.6 8.8-4.8 12z"/>
</svg>