<svg xmlns="http://www.w3.org/2000/svg" xml:space="preserve" style="enable-background:new 0 0 380.061 380.061" viewBox="0 0 380.061 380.061"  fill='#fff'>
  <path d="M364.861 157.292c-34.4-18.4-88-47.2-140.8-76.8-2.4-19.2-15.2-35.2-33.6-39.2 3.2-8.8 11.2-22.4 29.6-23.2 4.8 0 8-4 7.2-8 0-4.8-4-8-8-7.2-27.2 1.6-40.8 23.2-44.8 39.2-8 1.6-15.2 4.8-20.8 9.6-36 16.8-126.4 57.6-140 64-6.4 3.2-13.6 10.4-13.6 18.4v187.2c-.8 7.2 6.4 13.6 15.2 14.4l348 41.6h.8c8.8 0 16-7.2 16-16v-187.2c0-8.8-8-12.8-15.2-16.8zm-184-101.6c14.4 0 27.2 12 27.2 27.2s-12.8 26.4-27.2 26.4-27.2-12-27.2-27.2 12-26.4 27.2-26.4zm-41.6 17.6c-.8 3.2-1.6 6.4-1.6 9.6 0 24 19.2 43.2 43.2 43.2 18.4-.8 34.4-12.8 40-28.8 32 18.4 72 40 100 56l-280-33.6 98.4-46.4zm218.4 288-336.8-41.6c-3.2 0-4.8-2.4-4.8-4.8v-51.2c17.6-4 23.2-.8 29.6 3.2 5.6 3.2 12.8 8 25.6 8 3.2 0 7.2 0 12-.8h1.6c20.8-5.6 26.4-2.4 33.6 1.6 5.6 3.2 12.8 8 25.6 8 3.2 0 7.2 0 12-.8h1.6c20.8-5.6 26.4-2.4 33.6 1.6 5.6 3.2 12.8 8 25.6 8 3.2 0 7.2 0 12-.8h1.6c20.8-5.6 26.4-2.4 33.6 1.6 5.6 3.2 12.8 8 25.6 8 3.2 0 7.2 0 12-.8h1.6c20.8-5.6 26.4-2.4 33.6 1.6 5.6 3.2 12.8 8 25.6 8l.8 46.4c0 3.2-2.4 5.6-5.6 4.8zm5.6-68.8c-11.2.8-15.2-1.6-20.8-5.6-10.4-6.4-20.8-10.4-45.6-4-15.2 2.4-20-.8-26.4-4.8-10.4-6.4-20.8-10.4-45.6-4-15.2 2.4-20-.8-26.4-4.8-10.4-6.4-20.8-10.4-45.6-4-15.2 2.4-20-.8-26.4-4.8-10.4-6.4-20.8-10.4-45.6-4-15.2 2.4-20-.8-26.4-4.8-9.6-5.6-18.4-9.6-37.6-5.6v-44c17.6-4 23.2-.8 29.6 3.2 5.6 3.2 12.8 8 25.6 8 3.2 0 7.2 0 12-.8h1.6c20.8-5.6 26.4-2.4 33.6 1.6 5.6 3.2 12.8 8 25.6 8 3.2 0 7.2 0 12-.8h1.6c20.8-5.6 26.4-2.4 33.6 1.6 5.6 3.2 12.8 8 25.6 8 3.2 0 7.2 0 12-.8h1.6c20.8-5.6 26.4-2.4 33.6 1.6 5.6 3.2 12.8 8 25.6 8 3.2 0 7.2 0 12-.8h1.6c20.8-5.6 26.4-2.4 33.6 1.6 5.6 3.2 12.8 8 25.6 8v44zm0-60.8c-11.2.8-16-1.6-21.6-5.6-10.4-6.4-20.8-10.4-45.6-4-15.2 2.4-20-.8-26.4-4.8-10.4-6.4-20.8-10.4-45.6-4-15.2 2.4-20-.8-26.4-4.8-10.4-6.4-20.8-10.4-45.6-4-15.2 2.4-20-.8-26.4-4.8-10.4-6.4-20.8-10.4-45.6-4-15.2 2.4-20-.8-26.4-4.8-9.6-5.6-18.4-9.6-37.6-5.6v-46.4c0-4 4-7.2 8-7.2l334.4 41.6c3.2.8 4.8 2.4 4.8 5.6v52.8z"/>
</svg>