<svg xmlns="http://www.w3.org/2000/svg" xml:space="preserve" style="enable-background:new 0 0 432 432" viewBox="0 0 432 432" fill='#fff'>
  <path d="M216 88.4h-10.4C89.6 91.6 0 143.6 0 208.4c0 27.2 16 48.8 37.6 52l37.6 78.4c1.6 2.4 4 4.8 7.2 4.8h267.2c3.2 0 5.6-1.6 7.2-4.8l37.6-78.4c20.8-3.2 37.6-25.6 37.6-52 0-67.2-95.2-120-216-120zm125.6 40c-4 .8-8.8 3.2-13.6 6.4-7.2-7.2-14.4-12.8-20.8-18.4 12.8 3.2 24 7.2 34.4 12zm-168.8-20.8c-7.2 4.8-15.2 12-23.2 20-12-4-24-6.4-33.6-8.8 17.6-5.6 36.8-9.6 56.8-11.2zm-86.4 21.6c5.6.8 26.4 4 51.2 11.2-6.4 8-12 16.8-16 27.2-1.6 4 0 8.8 4 10.4.8.8 2.4.8 3.2.8 3.2 0 6.4-1.6 7.2-4.8 4.8-10.4 11.2-20 17.6-28 24.8 8.8 52 20.8 71.2 37.6 1.6 1.6 3.2 2.4 5.6 2.4 2.4 0 4-.8 5.6-2.4 3.2-3.2 2.4-8-.8-11.2-19.2-16.8-44.8-29.6-69.6-38.4 17.6-16.8 36-25.6 40.8-28h8.8c16.8 0 33.6.8 49.6 3.2 4.8 3.2 28 16 48.8 35.2-8 5.6-15.2 13.6-21.6 23.2-2.4 4-1.6 8.8 2.4 11.2 1.6.8 3.2 1.6 4.8 1.6 2.4 0 4.8-1.6 6.4-3.2 5.6-8.8 12.8-15.2 20-20 7.2 8 12.8 16.8 16.8 25.6 1.6 3.2 4 4.8 7.2 4.8.8 0 2.4 0 3.2-.8 4-1.6 5.6-6.4 4-10.4-4.8-9.6-10.4-19.2-17.6-28 10.4-5.6 19.2-8 23.2-8.8 29.6 16.8 48.8 38.4 52.8 62.4H16.8c4-29.6 30.4-55.2 69.6-72.8zm260 87.2c-2.4 16-13.6 28.8-25.6 28.8s-24-12-26.4-28.8h52zm-69.6 0c-2.4 16-13.6 28.8-25.6 28.8s-24-12-26.4-28.8h52zm-69.6 0c-2.4 16-13.6 28.8-25.6 28.8s-23.2-12-26.4-28.8h52zm-69.6 0c-2.4 16-13.6 28.8-25.6 28.8s-23.2-12-26.4-28.8h52zm-120.8 0h52c-2.4 16-13.6 28.8-25.6 28.8s-24-12-26.4-28.8zm328 112H87.2l-6.4-13.6h269.6l-5.6 13.6zm13.6-29.6H73.6l-19.2-40c9.6-3.2 17.6-10.4 23.2-20 8 13.6 20 22.4 34.4 22.4s27.2-8.8 34.4-22.4c8 13.6 20 22.4 34.4 22.4 14.4 0 27.2-8.8 34.4-22.4 8 13.6 20 22.4 34.4 22.4 14.4 0 27.2-8.8 34.4-22.4 8 13.6 20 22.4 34.4 22.4 14.4 0 27.2-8.8 34.4-22.4 5.6 9.6 13.6 16.8 23.2 20l-17.6 40zm31.2-53.6c-12.8 0-23.2-12-25.6-28.8h52c-3.2 16.8-13.6 28.8-26.4 28.8z"/>
</svg>